<svg width="1187" height="944" viewBox="0 0 1187 944" fill="none" xmlns="http://www.w3.org/2000/svg">
<path d="M681.185 402.374C678.51 401.037 678.51 397.221 681.185 395.883L885.91 293.521C888.584 292.184 888.584 288.367 885.91 287.03L751.59 219.87C748.866 218.508 745.66 218.508 742.936 219.87L390.909 395.883C388.235 397.22 388.235 401.037 390.909 402.374L742.936 578.387C745.66 579.749 748.866 579.749 751.59 578.387L885.91 511.227C888.584 509.89 888.584 506.074 885.91 504.737L681.185 402.374Z" fill="black"/>
<path d="M307.522 360.681C310.247 362.043 313.453 362.043 316.177 360.681L885.91 75.8142C888.584 74.4771 888.584 70.6607 885.91 69.3235L751.59 2.16358C748.866 0.801573 745.66 0.801577 742.936 2.16359L173.203 287.03C170.528 288.367 170.528 292.184 173.203 293.521L307.522 360.681Z" fill="black"/>
<path d="M94.4121 758.642C118.918 758.642 139.814 765.606 157.097 779.794C173.699 793.63 183.678 811.636 187.034 833.813C187.17 834.71 186.47 835.513 185.562 835.513H143.577C142.883 835.513 142.281 835.033 142.104 834.361C136.561 813.316 117.975 798.883 94.4121 798.883C79.7088 798.883 67.843 803.785 58.5566 813.329C49.2703 823.131 44.627 835.513 44.627 850.732C44.627 865.952 49.2702 878.592 58.5566 888.395C67.843 898.455 79.7088 903.355 94.4121 903.355C117.731 903.355 136.318 888.911 142.097 867.607C142.278 866.941 142.877 866.468 143.567 866.468H185.562C186.47 866.468 187.17 867.27 187.034 868.168C183.679 890.344 173.699 908.351 157.097 922.187C139.814 936.374 118.918 943.598 94.4121 943.598C66.8109 943.598 44.3683 934.826 26.5693 917.285C8.77058 900.002 0 877.818 0 850.99C6.77867e-05 824.163 8.77044 801.978 26.5693 784.695C44.3683 767.412 66.8109 758.642 94.4121 758.642ZM268.777 810.233C289.156 810.233 305.665 816.425 318.821 829.064C331.977 841.704 338.426 857.439 338.426 876.786C338.426 896.133 331.977 912.127 318.821 924.767C305.665 937.406 289.156 943.598 268.777 943.598C248.399 943.598 231.89 937.406 218.734 924.767C205.579 912.127 198.871 896.133 198.871 876.786C198.871 857.439 205.579 841.704 218.734 829.064C231.89 816.425 248.399 810.233 268.777 810.233ZM760.277 810.233C780.656 810.233 797.165 816.425 810.321 829.064C823.477 841.704 829.926 857.44 829.926 876.786C829.926 896.133 823.477 912.127 810.321 924.767C797.165 937.406 780.656 943.598 760.277 943.598C739.899 943.598 723.389 937.407 710.233 924.767C697.078 912.127 690.371 896.133 690.371 876.786C690.371 857.44 697.078 841.704 710.233 829.064C723.389 816.425 739.899 810.233 760.277 810.233ZM434.279 810.233C447.693 810.233 458.785 814.877 467.298 823.905C475.81 833.192 480.196 845.057 480.196 859.503V939.518C480.196 940.346 479.525 941.018 478.696 941.018H440.423C439.594 941.018 438.923 940.346 438.923 939.518V865.437C438.923 852.023 430.41 842.994 418.028 842.994C404.872 842.994 396.359 852.023 396.359 865.437V939.518C396.359 940.346 395.688 941.018 394.859 941.018H356.587C355.758 941.018 355.087 940.346 355.087 939.518V814.313C355.087 813.484 355.758 812.812 356.587 812.812H394.859C395.688 812.812 396.359 813.484 396.359 814.312V825.001C396.359 826.475 398.331 827.11 399.272 825.976C408.037 815.419 419.706 810.233 434.279 810.233ZM558.059 811.313C558.059 812.141 558.73 812.812 559.559 812.812H584.935C585.763 812.812 586.435 813.484 586.435 814.312V845.363C586.435 846.192 585.763 846.863 584.935 846.863H559.559C558.73 846.863 558.059 847.535 558.059 848.363V939.518C558.059 940.346 557.387 941.018 556.559 941.018H518.286C517.458 941.018 516.786 940.346 516.786 939.518V848.363C516.786 847.535 516.115 846.863 515.286 846.863H494.554C493.725 846.863 493.054 846.192 493.054 845.363V814.312C493.054 813.484 493.725 812.812 494.554 812.812H515.286C516.115 812.812 516.786 812.141 516.786 811.313V780.521C516.786 779.692 517.458 779.021 518.286 779.021H556.559C557.387 779.021 558.059 779.692 558.059 780.521V811.313ZM685.854 847.685C685.854 848.513 685.177 849.183 684.348 849.198C658.353 849.653 640.97 861.932 640.97 880.914V939.518C640.97 940.346 640.298 941.018 639.47 941.018H601.455C600.627 941.018 599.955 940.346 599.955 939.518V814.313C599.955 813.484 600.627 812.812 601.455 812.812H639.47C640.298 812.812 640.97 813.484 640.97 814.313V833.325C640.97 834.946 643.359 835.492 644.164 834.085C653.299 818.123 667.533 808.964 684.353 808.451C685.181 808.425 685.854 809.099 685.854 809.928V847.685ZM887.602 939.518C887.602 940.346 886.93 941.018 886.102 941.018H848.086C847.258 941.018 846.586 940.346 846.586 939.518V762.722C846.586 761.893 847.258 761.222 848.086 761.222H886.102C886.93 761.222 887.602 761.893 887.602 762.722V939.518ZM1185.47 798.069C1185.47 798.898 1184.8 799.569 1183.97 799.569H1105.46C1104.63 799.569 1103.96 800.241 1103.96 801.069V834.184C1103.96 835.012 1104.63 835.684 1105.46 835.684H1178.04C1178.87 835.684 1179.54 836.355 1179.54 837.184V871.329C1179.54 872.158 1178.87 872.829 1178.04 872.829H1105.46C1104.63 872.829 1103.96 873.501 1103.96 874.329V939.173C1103.96 940.001 1103.29 940.673 1102.46 940.673H1061.61C1060.78 940.673 1060.11 940.001 1060.11 939.173V762.376C1060.11 761.548 1060.78 760.876 1061.61 760.876H1183.97C1184.8 760.876 1185.47 761.548 1185.47 762.376V798.069ZM268.777 846.089C260.781 846.089 254.074 848.927 248.915 854.602C243.498 860.535 240.918 867.758 240.918 876.786C240.918 895.101 252.526 907.741 268.777 907.741C276.774 907.741 283.481 904.904 288.641 898.971C293.8 893.038 296.379 885.815 296.379 876.786C296.379 867.758 293.8 860.535 288.641 854.602C283.481 848.927 276.774 846.089 268.777 846.089ZM760.277 846.089C752.281 846.089 745.574 848.927 740.415 854.602C734.998 860.535 732.418 867.758 732.418 876.786C732.418 895.101 744.026 907.741 760.277 907.741C768.274 907.741 774.981 904.904 780.141 898.971C785.3 893.038 787.879 885.815 787.879 876.786C787.879 867.758 785.3 860.535 780.141 854.602C774.981 848.926 768.274 846.089 760.277 846.089ZM1023.32 872.117C1023.32 872.946 1022.65 873.617 1021.82 873.617H927.065C926.237 873.617 925.565 872.946 925.565 872.117V837.69C925.565 836.862 926.237 836.19 927.065 836.19H1021.82C1022.65 836.19 1023.32 836.862 1023.32 837.69V872.117Z" fill="black"/>
</svg>
