<svg xmlns="http://www.w3.org/2000/svg" width="180" height="48" viewBox="0 0 180 48" fill="#141518">
  <!-- stylized barcode (decorative, not scannable) -->
  <g>
    <rect x="0"   y="0" width="2" height="40"/>
    <rect x="4"   y="0" width="1" height="40"/>
    <rect x="7"   y="0" width="3" height="40"/>
    <rect x="12"  y="0" width="1" height="40"/>
    <rect x="15"  y="0" width="2" height="40"/>
    <rect x="19"  y="0" width="4" height="40"/>
    <rect x="25"  y="0" width="1" height="40"/>
    <rect x="28"  y="0" width="2" height="40"/>
    <rect x="32"  y="0" width="3" height="40"/>
    <rect x="37"  y="0" width="1" height="40"/>
    <rect x="40"  y="0" width="2" height="40"/>
    <rect x="44"  y="0" width="1" height="40"/>
    <rect x="47"  y="0" width="3" height="40"/>
    <rect x="52"  y="0" width="2" height="40"/>
    <rect x="56"  y="0" width="1" height="40"/>
    <rect x="59"  y="0" width="4" height="40"/>
    <rect x="65"  y="0" width="1" height="40"/>
    <rect x="68"  y="0" width="2" height="40"/>
    <rect x="72"  y="0" width="3" height="40"/>
    <rect x="77"  y="0" width="1" height="40"/>
    <rect x="80"  y="0" width="2" height="40"/>
    <rect x="84"  y="0" width="4" height="40"/>
    <rect x="90"  y="0" width="1" height="40"/>
    <rect x="93"  y="0" width="2" height="40"/>
    <rect x="97"  y="0" width="3" height="40"/>
    <rect x="102" y="0" width="1" height="40"/>
    <rect x="105" y="0" width="2" height="40"/>
    <rect x="109" y="0" width="1" height="40"/>
    <rect x="112" y="0" width="4" height="40"/>
    <rect x="118" y="0" width="2" height="40"/>
    <rect x="122" y="0" width="1" height="40"/>
    <rect x="125" y="0" width="3" height="40"/>
    <rect x="130" y="0" width="1" height="40"/>
    <rect x="133" y="0" width="2" height="40"/>
    <rect x="137" y="0" width="1" height="40"/>
    <rect x="140" y="0" width="3" height="40"/>
    <rect x="145" y="0" width="2" height="40"/>
    <rect x="149" y="0" width="1" height="40"/>
    <rect x="152" y="0" width="4" height="40"/>
    <rect x="158" y="0" width="1" height="40"/>
    <rect x="161" y="0" width="2" height="40"/>
    <rect x="165" y="0" width="3" height="40"/>
    <rect x="170" y="0" width="1" height="40"/>
    <rect x="173" y="0" width="2" height="40"/>
  </g>
  <text x="0" y="47" fill="#141518" font-family="JetBrains Mono, ui-monospace, monospace" font-size="6" letter-spacing="1">RG14 6AA  33265-4835</text>
</svg>
